<svg version="1.1" id="Capa_1" xmlns="http://www.w3.org/2000/svg" xmlns:xlink="http://www.w3.org/1999/xlink" x="0px" y="0px" viewBox="0 0 560.1 103.5" style="enable-background:new 0 0 560.1 103.5;" xml:space="preserve">
                                <style type="text/css">
                                    .c-logo {
                                        fill: #007CB6;
                                    }
                                </style>
                                <g>
                                    <g>
                                        <polygon class="c-logo" points="87,0.9 60.6,0.9 23.5,44.6 23.5,0.9 0,0.9 0,102.4 23.5,102.4 23.5,72.5 34,61.5 62.8,102.4 89.5,102.4 48.9,46.2 "></polygon>
                                        <path class="c-logo" d="M130.4,0.9l-37,101.5h24l7.7-22.7h31.6l7.9,22.7h24l-37-101.5H130.4z M128.9,63.5L141,27.6l11.9,35.9H128.9z"></path>
                                        <polygon class="c-logo" points="230.1,47.5 208.2,0.9 182.8,0.9 218.4,67.5 218.4,102.4 241.7,102.4 241.7,67.8 277.9,0.9 252.3,0.9 "></polygon>
                                        <path class="c-logo" d="M356,52c-2.7-2.3-6-4.3-9.9-5.9c-3.9-1.6-8.3-3-13.2-4.4c-3.5-1-6.6-1.8-9.3-2.6c-2.7-0.8-4.9-1.6-6.6-2.5c-1.8-0.9-3.1-1.9-4-3.1s-1.4-2.6-1.4-4.3c0-5.6,4.2-8.4,12.6-8.4c3.1,0,6.1,0.4,9.2,1.3c3.1,0.9,5.9,1.9,8.4,3c2.6,1.1,4.7,2.2,6.4,3.3c1.7,1.1,2.7,1.8,3,2.1l10.3-19.5c-2.3-1.3-4.8-2.7-7.5-4c-2.7-1.3-5.6-2.5-8.8-3.6c-3.1-1-6.4-1.9-9.9-2.6c-3.4-0.7-6.9-1-10.4-1c-5.1,0-9.8,0.7-14.4,2.1c-4.5,1.4-8.5,3.6-11.9,6.4c-3.4,2.8-6.2,6.3-8.2,10.4c-2,4.1-3,8.8-3,14.2c0,3.8,0.5,7.2,1.6,10c1.1,2.9,2.8,5.4,5,7.6c2.2,2.2,5.1,4.1,8.5,5.8c3.4,1.7,7.5,3.2,12.2,4.6c3.5,1.1,6.8,2,9.8,2.9s5.6,1.8,7.8,2.8c2.2,1,3.9,2.1,5.1,3.4c1.2,1.2,1.9,2.8,1.9,4.7c0,5.1-4.1,7.6-12.4,7.6c-3.9,0-7.8-0.5-11.6-1.6c-3.8-1-7.3-2.2-10.4-3.6c-3.1-1.3-5.7-2.7-7.8-4c-2.1-1.3-3.3-2.2-3.7-2.7L283.2,91c3,2,6.2,3.8,9.7,5.3c3.5,1.5,7.1,2.8,10.8,3.9c3.7,1.1,7.5,1.9,11.4,2.5c3.9,0.6,7.7,0.9,11.4,0.9c4.9,0,9.6-0.5,14.2-1.6c4.6-1.1,8.6-2.9,12.2-5.3c3.5-2.4,6.4-5.6,8.5-9.6c2.1-4,3.2-8.8,3.2-14.5c0-4.7-0.7-8.7-2.2-12C360.9,57.2,358.8,54.3,356,52z"></path>
                                        <polygon class="c-logo" points="407.5,60.2 447.5,60.2 447.5,41.2 407.5,41.2 407.5,21.5 454.1,21.5 454.1,0.9 384,0.9 384,102.4 455.4,102.4 455.4,81.8 407.5,81.8 "></polygon>
                                        <path class="c-logo" d="M537.7,64.6c2.6-1.4,4.9-3.2,6.9-5.2c2-2,3.8-4.4,5.2-6.9c1.4-2.6,2.5-5.3,3.3-8.2c0.8-2.9,1.1-5.9,1.1-9.1c0-4.2-0.8-8.3-2.5-12.4c-1.7-4.1-4-7.8-6.9-11c-3-3.2-6.5-5.9-10.5-7.9c-4.1-2-8.5-3-13.2-3h-45.8v101.5h23.5V69.6h15.3l19.5,32.8h26.5L537.7,64.6z M527.4,45.3c-2,2.6-4.4,3.9-7.2,3.9h-21.5V21.5h20.7c2.7,0,5.1,1.2,7.4,3.7c2.3,2.5,3.4,5.8,3.4,10C530.4,39.3,529.4,42.6,527.4,45.3z"></path>
                                    </g>
                                </g>
                            </svg>