<?xml version="1.0" encoding="utf-8"?>
<!-- Generator: Adobe Illustrator 23.0.6, SVG Export Plug-In . SVG Version: 6.00 Build 0)  -->
<svg version="1.1" id="Capa_1" xmlns="http://www.w3.org/2000/svg" xmlns:xlink="http://www.w3.org/1999/xlink" x="0px" y="0px"
	 viewBox="0 0 150.41 102.81" style="enable-background:new 0 0 150.41 102.81;" xml:space="preserve">
<style type="text/css">
	.st0{fill:#367EB5;}
	.st1{fill:#FFFFFF;}
</style>
<g>
	<path class="st0" d="M73.61,18.91c-18.12,0-32.87,14.74-32.87,32.87s14.74,32.87,32.87,32.87s32.87-14.74,32.87-32.87
		S91.74,18.91,73.61,18.91z"/>
	<g>
		<path class="st1" d="M85.25,42.19H61.97c-1.13,0-2.05-0.92-2.05-2.05c0-1.13,0.92-2.05,2.05-2.05h23.28
			c1.13,0,2.05,0.92,2.05,2.05C87.31,41.27,86.39,42.19,85.25,42.19z"/>
		<path class="st1" d="M85.25,53.83H61.97c-1.13,0-2.05-0.92-2.05-2.05c0-1.13,0.92-2.05,2.05-2.05h23.28
			c1.13,0,2.05,0.92,2.05,2.05C87.31,52.91,86.39,53.83,85.25,53.83z"/>
		<path class="st1" d="M85.25,65.47H61.97c-1.13,0-2.05-0.92-2.05-2.05s0.92-2.05,2.05-2.05h23.28c1.13,0,2.05,0.92,2.05,2.05
			S86.39,65.47,85.25,65.47z"/>
	</g>
</g>
</svg>
