<?xml version="1.0" encoding="utf-8"?>
<!-- Generator: Adobe Illustrator 23.0.6, SVG Export Plug-In . SVG Version: 6.00 Build 0)  -->
<svg version="1.1" id="Capa_1" xmlns="http://www.w3.org/2000/svg" xmlns:xlink="http://www.w3.org/1999/xlink" x="0px" y="0px"
	 viewBox="0 0 150.41 102.81" style="enable-background:new 0 0 150.41 102.81;" xml:space="preserve">
<style type="text/css">
	.st0{fill:#BEDBF2;}
	.st1{fill:#0E80B6;}
</style>
<g>
	<g>
		<path class="st0" d="M41.5,57.57c29.89,4.26,34.78,31.1,34.78,31.1l17.08,2.43c0,0,12.19-24.4,42.08-20.14l2.43-17.08L43.93,40.49
			L41.5,57.57z"/>
		<path class="st1" d="M36.62,61.23l4.27,0.61c26.31,3.75,30.96,26.64,31.14,27.6l0.56,3.06l20.15,2.87l3.06,0.42l1.4-2.75
			c0.45-0.88,11.31-21.56,37.62-17.81l4.27,0.61l3.65-25.62L40.27,35.61L36.62,61.23z M47.59,45.37l85.39,12.17l-1.24,8.71
			c-23.51-1.46-36.29,13.79-40.59,20.18L79.69,84.8c-2.34-7.34-10.35-25.55-33.33-30.72L47.59,45.37z"/>
	</g>
	<g>
		<g>
			<path class="st0" d="M31.89,51.17c-7-0.29-12.41,1.4-12.41,1.4l-6.86,19.26l8.76,14.41L60.43,74.1
				C54.76,55.84,41.74,51.58,31.89,51.17z"/>
			<path class="st0" d="M70.94,39.03c-7.88,5.92-16.19,16.81-10.51,35.07l39.05-12.14l-0.95-16.83L81.96,33.14
				C81.96,33.14,76.55,34.82,70.94,39.03z"/>
		</g>
		<path class="st1" d="M77.37,4.59l-7.81,2.43l7.38,23.74c-2.28,1.05-5.34,2.67-8.45,5c-7.47,5.61-11.99,12.79-13.45,21
			c-5.86-5.94-13.65-9.3-22.99-9.68c-3.88-0.16-7.32,0.23-9.79,0.67l-7.38-23.73l-7.81,2.43l8.09,26.03L8.11,72.29l11.43,18.8
			l38.2-11.87l7.81-2.43l38.2-11.87l-1.24-21.97L85.46,30.63L77.37,4.59z M23.21,81.38l-6.09-10.02l5.47-15.35
			c1.97-0.41,5.31-0.91,9.13-0.76c11.16,0.46,19.02,5.91,23.4,16.21L23.21,81.38z M94.56,47.3L95.22,59l-31.91,9.92
			C61.08,57.95,64.46,49.01,73.4,42.3c3.07-2.3,6.1-3.77,7.95-4.55L94.56,47.3z"/>
	</g>
</g>
</svg>
