<?xml version="1.0" encoding="utf-8"?>
<!-- Generator: Adobe Illustrator 23.0.6, SVG Export Plug-In . SVG Version: 6.00 Build 0)  -->
<svg version="1.1" id="Capa_1" xmlns="http://www.w3.org/2000/svg" xmlns:xlink="http://www.w3.org/1999/xlink" x="0px" y="0px"
	 viewBox="0 0 150.41 102.81" style="enable-background:new 0 0 150.41 102.81;" xml:space="preserve">
<style type="text/css">
	.st0{fill:#BEDBF2;}
	.st1{fill:#0E80B6;}
	.st2{fill:#FFFFFF;}
</style>
<g>
	<path class="st0" d="M66.48,49.83l22.53-4.32l14.07-36.41l26.88,10.39l-3.95,10.21l10.51,4.06L119.51,77.8
		c-1.57,4.05-5.16,7.06-9.74,8.17l-1.23,0.3l-0.01,0.01l0-0.01l-7.87,1.9l-25.34,6.06c-8.15,1.93-17.09-2.81-19.6-10.46
		c-0.98-2.92-0.86-5.79,0.12-8.34c0.92-2.38,2.62-4.43,4.91-5.88c-1.46-1.47-2.61-3.23-3.27-5.22c-0.88-2.62-0.77-5.2,0.11-7.48
		C58.93,53.37,62.14,50.67,66.48,49.83z"/>
	<path class="st1" d="M55.01,55.87c-1.12,2.9-1.17,6.05-0.14,9.12c0.45,1.36,1.11,2.68,1.96,3.91c-1.69,1.54-2.98,3.41-3.78,5.46
		c-1.24,3.21-1.29,6.7-0.15,10.1c1.44,4.37,4.66,8.09,9.06,10.47c0.79,0.42,1.6,0.8,2.42,1.12c3.84,1.48,7.91,1.78,11.79,0.87
		l34.47-8.27c5.5-1.33,9.74-4.89,11.63-9.77l18-46.59l-10.71-4.14l3.88-10.04L101.42,5.73l-14.5,37.52l-21.13,4.06
		C60.73,48.29,56.7,51.49,55.01,55.87z M104.66,84.31L77.17,90.9l-7.6-21.19l23.56-4.52l10.12-26.19l24.43,9.44l-7.2,18.64
		l-20.63,5.16L104.66,84.31z M105.21,33.91l3.14-8.11l24.43,9.44l-3.14,8.11L105.21,33.91z M71.42,91.89
		c-2.33,0.01-4.64-0.57-6.74-1.71c-3-1.62-5.19-4.13-6.16-7.08l0-0.01c-0.75-2.22-0.72-4.5,0.09-6.59c0.91-2.36,2.84-4.3,5.36-5.41
		L71.42,91.89z M65.01,64.88c-1.28,0.25-2.54,0.65-3.77,1.19c-0.5-0.76-0.89-1.56-1.16-2.36l0-0.01c-0.66-1.97-0.64-3.99,0.08-5.84
		c0.8-2.07,2.48-3.77,4.67-4.76l3.96,11.05L65.01,64.88z M104.77,18.56l-0.7,1.8l-2.08-0.8l2.75-7.1l21.74,8.4l-2.05,5.3
		L104.77,18.56z M91.1,47.75l9.06-23.46l2.08,0.8L88.62,60.35l-14.53,2.79L70.02,51.8L91.1,47.75z M117.99,73.49l-1.25,3.24
		c-1.09,2.82-3.44,5.02-6.49,6.13l-2.7-6.76L117.99,73.49z"/>
</g>
<g>
	<g>
		
			<rect x="16.45" y="23.11" transform="matrix(0.981 -0.1941 0.1941 0.981 -7.6404 11.5082)" class="st2" width="76.88" height="43.24"/>
		<polygon class="st0" points="67.47,63.28 72.93,72.89 98.64,67.8 91.18,30.09 62.04,35.86 		"/>
		<polygon class="st0" points="23.22,82.73 48.94,77.64 50.33,66.68 44.9,39.25 15.76,45.02 		"/>
	</g>
	<path class="st1" d="M11.65,42.27l1.36,6.86l7.46,37.71l31.61-6.26l1.39-10.96l0.96-0.19l10.28-2.04l0.96-0.19l5.46,9.61
		l31.61-6.26l-7.46-37.71l-1.36-6.86l-2.71-13.71L8.94,28.55L11.65,42.27z M63.36,60.53l-10.28,2.04L49.01,42l10.28-2.04
		L63.36,60.53z M94.54,65.05l-19.81,3.92l-3.94-6.92l-4.64-23.44l22.28-4.41L94.54,65.05z M17.15,34.05l68.56-13.57l1.36,6.86
		l-22.28,4.41l-6.86,1.36l-10.28,2.04l-6.86,1.36l-22.28,4.41L17.15,34.05z M19.87,47.77l22.28-4.41l4.64,23.44l-1,7.9l-19.81,3.92
		L19.87,47.77z"/>
</g>
</svg>
