<?xml version="1.0" encoding="utf-8"?>
<!-- Generator: Adobe Illustrator 23.0.6, SVG Export Plug-In . SVG Version: 6.00 Build 0)  -->
<svg version="1.1" id="Capa_1" xmlns="http://www.w3.org/2000/svg" xmlns:xlink="http://www.w3.org/1999/xlink" x="0px" y="0px"
	 viewBox="0 0 150.41 102.81" style="enable-background:new 0 0 150.41 102.81;" xml:space="preserve">
<style type="text/css">
	.st0{fill:#BEDBF2;}
	.st1{fill:#0E80B6;}
</style>
<polygon class="st0" points="411.06,57.02 406.06,57.02 406.06,59.52 406.06,65.15 402.34,68.87 398.55,65.08 398.55,59.52 
	398.55,57.02 393.54,57.02 393.54,69.53 391.04,69.53 391.04,84.55 413.57,84.55 413.57,69.53 411.06,69.53 "/>
<path class="st1" d="M414.82,68.28h-2.5V55.76h-7.51v2.5h-5.01v-2.5h-7.51v12.52h-2.5V85.8h25.03V68.28z M399.8,60.77h5.01v3.86
	l-2.47,2.47l-2.54-2.54V60.77z M412.32,83.3h-20.03V70.78h2.5V58.27h2.5v2.5v4.82l5.04,5.04l4.97-4.97v-4.9v-2.5h2.5v12.52h2.5V83.3
	z"/>
<polygon class="st0" points="382.8,255.42 382.8,264.59 394.64,269.72 397.55,272.29 401.01,271.51 404.14,269.28 411.63,265.81 
	414.53,264.14 414.53,255.2 "/>
<g>
	<path class="st1" d="M415.5,264.66v-9.54c0-0.59-0.48-1.06-1.06-1.06H382.9c-0.59,0-1.06,0.48-1.06,1.06v9.54
		c0,0.41,0.24,0.79,0.6,0.96l11.49,5.49l0.01,0.01c1.28,1.24,2.95,1.92,4.72,1.92c1.77,0,3.44-0.68,4.72-1.92l0.01-0.01l0.02-0.01
		l11.47-5.48C415.26,265.44,415.5,265.07,415.5,264.66z M383.96,263.99v-3.83h7.91v6.09c0,0.46,0.05,0.93,0.14,1.38l0.05,0.23
		L383.96,263.99z M403.33,266.25c0,2.57-2.09,4.66-4.66,4.66c-2.57,0-4.66-2.09-4.66-4.66v-6.09h9.32V266.25L403.33,266.25z
		 M413.37,263.99l-8.1,3.87l0.05-0.23c0.09-0.45,0.14-0.92,0.14-1.38v-6.09h7.91L413.37,263.99L413.37,263.99z M413.37,258.03h-29.4
		v-1.85h29.4V258.03L413.37,258.03z"/>
</g>
<g>
	<path class="st1" d="M117.47,44.43c0,3.86-3.67,6.99-8.2,6.99c-4.53,0-8.2-3.13-8.2-6.99c0-3.86,3.67-6.99,8.2-6.99
		C113.8,37.44,117.47,40.57,117.47,44.43z"/>
	<path class="st1" d="M109.27,53.7c-5.78,0-10.49-4.16-10.49-9.28c0-5.12,4.71-9.28,10.49-9.28c5.79,0,10.49,4.16,10.49,9.28
		C119.76,49.54,115.05,53.7,109.27,53.7z M109.27,39.73c-3.26,0-5.91,2.11-5.91,4.7c0,2.59,2.65,4.7,5.91,4.7
		c3.26,0,5.92-2.11,5.92-4.7C115.18,41.84,112.53,39.73,109.27,39.73z"/>
</g>
<path class="st1" d="M126.54,55.82c-1.95,0.33-3.89,0.49-5.77,0.49c-16.15,0-30.98-11.48-37.77-29.24l-0.53-1.39l-1.48,0.13
	c-15.7,1.42-30.45,7.25-41.54,16.44l-0.66,0.55l-0.05,0.86c-0.08,1.38-0.11,2.54-0.11,3.64c0,29.92,20.43,54.26,45.55,54.26
	c21.61,0,40.38-18.28,44.65-43.47l0.46-2.73L126.54,55.82z"/>
<path class="st0" d="M75.64,7.73c-15,0-27.78,9.51-32.64,22.83c-3.72-1.55-7.84-0.5-9.57,2.59c-1.88,3.37-0.19,7.89,3.76,10.1
	c1.22,0.68,2.51,1.06,3.76,1.16c1,18.28,16.15,32.8,34.68,32.8c19.19,0,34.74-15.55,34.74-34.74C110.38,23.28,94.83,7.73,75.64,7.73
	z"/>
<path class="st1" d="M75.64,79.49c-19.04,0-34.88-14.42-36.82-33.15c-0.95-0.25-1.87-0.62-2.74-1.1c-2.39-1.33-4.2-3.39-5.1-5.81
	c-0.95-2.55-0.79-5.17,0.45-7.4c1.56-2.8,4.58-4.47,8.09-4.47c0.71,0,1.42,0.07,2.13,0.21C47.47,14.32,60.87,5.44,75.64,5.44
	c20.42,0,37.03,16.61,37.03,37.03C112.67,62.88,96.06,79.49,75.64,79.49z M39.52,32.13c-1.82,0-3.35,0.79-4.09,2.12
	c-0.58,1.03-0.63,2.3-0.16,3.57c0.52,1.4,1.6,2.61,3.04,3.41c0.89,0.49,1.87,0.8,2.84,0.88l1.99,0.17l0.11,1.99
	c0.94,17.18,15.18,30.64,32.4,30.64c17.89,0,32.45-14.56,32.45-32.45c0-17.89-14.56-32.45-32.45-32.45
	c-13.58,0-25.84,8.57-30.49,21.33l-0.82,2.25l-2.21-0.92C41.28,32.32,40.38,32.13,39.52,32.13z"/>
<path class="st1" d="M111.97,35.3C109.34,21.91,99.46,11.22,86.8,7.2l0.05-0.12l-2.54-0.61c-0.79-0.19-1.59-0.35-2.39-0.49
	c-0.09-0.01-0.17-0.02-0.26-0.04c-0.86-0.14-1.72-0.25-2.59-0.33c-0.08-0.01-0.17-0.02-0.25-0.03L75.8,5.32l0.02,0.12
	c-0.06,0-0.12-0.01-0.18-0.01c-15.24,0-29.13,9.56-34.58,23.79l-0.58,1.53l1.25,1.05c4.87,4.07,10.39,4.07,12.75,4.07
	c6.57,0,17.7-2.34,26.33-16c5.97,10.11,16.59,17.11,28.73,18.15l3.02,0.26L111.97,35.3z"/>
<circle class="st1" cx="64.09" cy="44.43" r="4.15"/>
<circle class="st1" cx="89.53" cy="44.43" r="4.15"/>
<rect x="72.26" y="58.63" class="st1" width="7.36" height="2.78"/>
</svg>
