<?xml version="1.0" encoding="utf-8"?>
<!-- Generator: Adobe Illustrator 23.0.6, SVG Export Plug-In . SVG Version: 6.00 Build 0)  -->
<svg version="1.1" id="Capa_1" xmlns="http://www.w3.org/2000/svg" xmlns:xlink="http://www.w3.org/1999/xlink" x="0px" y="0px"
	 viewBox="0 0 150.41 102.81" style="enable-background:new 0 0 150.41 102.81;" xml:space="preserve">
<style type="text/css">
	.st0{fill:#BEDBF2;}
	.st1{fill:#0E80B6;}
</style>
<polygon class="st0" points="411.06,57.02 406.06,57.02 406.06,59.52 406.06,65.15 402.34,68.87 398.55,65.08 398.55,59.52 
	398.55,57.02 393.54,57.02 393.54,69.53 391.04,69.53 391.04,84.55 413.57,84.55 413.57,69.53 411.06,69.53 "/>
<path class="st1" d="M414.82,68.28h-2.5V55.76h-7.51v2.5h-5.01v-2.5h-7.51v12.52h-2.5V85.8h25.03V68.28z M399.8,60.77h5.01v3.86
	l-2.47,2.47l-2.54-2.54V60.77z M412.32,83.3h-20.03V70.78h2.5V58.27h2.5v2.5v4.82l5.04,5.04l4.97-4.97v-4.9v-2.5h2.5v12.52h2.5V83.3
	z"/>
<polygon class="st0" points="382.8,255.42 382.8,264.59 394.64,269.72 397.55,272.29 401.01,271.51 404.14,269.28 411.63,265.81 
	414.53,264.14 414.53,255.2 "/>
<g>
	<path class="st1" d="M415.5,264.66v-9.54c0-0.59-0.48-1.06-1.06-1.06H382.9c-0.59,0-1.06,0.48-1.06,1.06v9.54
		c0,0.41,0.24,0.79,0.6,0.96l11.49,5.49l0.01,0.01c1.28,1.24,2.95,1.92,4.72,1.92c1.77,0,3.44-0.68,4.72-1.92l0.01-0.01l0.02-0.01
		l11.47-5.48C415.26,265.44,415.5,265.07,415.5,264.66z M383.96,263.99v-3.83h7.91v6.09c0,0.46,0.05,0.93,0.14,1.38l0.05,0.23
		L383.96,263.99z M403.33,266.25c0,2.57-2.09,4.66-4.66,4.66c-2.57,0-4.66-2.09-4.66-4.66v-6.09h9.32V266.25L403.33,266.25z
		 M413.37,263.99l-8.1,3.87l0.05-0.23c0.09-0.45,0.14-0.92,0.14-1.38v-6.09h7.91L413.37,263.99L413.37,263.99z M413.37,258.03h-29.4
		v-1.85h29.4V258.03L413.37,258.03z"/>
</g>
<polygon class="st0" points="44.69,38.49 41.03,57.41 41.03,69 48.35,76.32 67.09,89.74 81.29,89.74 96.55,81.81 104.41,67.69 
	113.63,64.12 110.58,53.14 105.09,29.95 83.12,20.19 54.45,23.24 "/>
<g>
	<g>
		<ellipse class="st1" cx="75.65" cy="67.81" rx="4.71" ry="1.89"/>
		<path class="st1" d="M113.59,55.13V38.98c0-1.13-0.09-2.15-0.23-3.14c-0.02-0.15-0.01-0.28-0.04-0.43
			c-0.03-0.13-0.07-0.27-0.1-0.41c-0.26-1.4-0.66-2.66-1.19-3.79c-4.14-9.76-15.9-18.98-29.46-21.62
			c-14.43-2.8-29.8,4.68-33.43,13.96c-6.9,2.03-11.42,6.41-11.42,15.42v16.16c-1.62,2.12-2.59,4.8-2.59,7.72
			c0,5.6,3.56,10.34,8.41,11.86c6.15,11.77,18.48,19.36,32.17,19.36c13.7,0,26.05-7.61,32.2-19.41c4.79-1.57,8.27-6.27,8.27-11.82
			C116.18,59.94,115.2,57.25,113.59,55.13z M104.41,67.69c-0.55,0-1.06-0.12-1.54-0.34c-3.84,11.16-14.54,19.2-27.16,19.2
			c-12.64,0-23.34-8.05-27.17-19.23c-0.51,0.24-1.06,0.38-1.65,0.38c-2.35,0-4.23-2.16-4.23-4.83c0-2.67,1.88-4.83,4.23-4.83
			c0.04,0,0.08,0.01,0.13,0.02c0.03-3.77,0.83-9.73,2.22-13.32c1.83,2.56,4.63,4.95,8.76,4.95c0,0,0,0,0,0
			c0.19,0,0.38-0.01,0.58-0.02c0.38-0.02,0.71-0.27,0.84-0.63c0.04-0.1,3.48-9.7,12.52-10.62c0.38,1.87,0.96,6.96-3.14,10.03
			c-0.3,0.23-0.44,0.61-0.35,0.98c0.09,0.37,0.4,0.64,0.77,0.7c0.08,0.01,1.95,0.29,4.74,0.29c4.76,0,13.4-0.87,19.04-6.52
			c0.94,0.95,2.61,3.29,1.83,7.49c-0.07,0.39,0.11,0.79,0.45,0.99c0.15,0.08,0.31,0.12,0.47,0.12c0.22,0,0.44-0.08,0.61-0.23
			c0.2-0.17,3.7-3.2,6.17-6.54c1.16,3.63,1.83,8.88,1.85,12.31c0.01,0,0.01,0,0.01,0c2.35,0,4.23,2.16,4.23,4.83
			S106.76,67.69,104.41,67.69z"/>
		<circle class="st1" cx="62.85" cy="56.25" r="4.24"/>
		<circle class="st1" cx="88.45" cy="56.25" r="4.24"/>
	</g>
</g>
</svg>
