<?xml version="1.0" encoding="utf-8"?>
<!-- Generator: Adobe Illustrator 23.0.6, SVG Export Plug-In . SVG Version: 6.00 Build 0)  -->
<svg version="1.1" id="Capa_1" xmlns="http://www.w3.org/2000/svg" xmlns:xlink="http://www.w3.org/1999/xlink" x="0px" y="0px"
	 viewBox="0 0 150.41 84.81" style="enable-background:new 0 0 150.41 84.81;" xml:space="preserve">
<style type="text/css">
	.st0{fill:#C4D3E5;}
	.st1{fill:#377FB7;}
</style>
<g id="XMLID_1183_">
	<path id="XMLID_1182_" class="st0" d="M117.17,26.41c-7.66-0.04-15.31-2.98-21.15-8.82c-11.77-11.77-30.85-11.77-42.62,0
		c-5.85,5.84-13.49,8.78-21.15,8.82v6.18c0,23.45,19.01,42.46,42.46,42.46c23.45,0,42.46-19.01,42.46-42.46L117.17,26.41z"/>
	<g id="XMLID_500_">
		<path id="XMLID_1135_" class="st1" d="M63.52,30.86c0,1.53,1.24,2.76,2.76,2.76h16.85c1.53,0,2.76-1.24,2.76-2.76
			c0-1.53-1.24-2.76-2.76-2.76H66.28C64.76,28.1,63.52,29.33,63.52,30.86z"/>
		<path id="XMLID_1161_" class="st1" d="M83.13,41.35H66.28c-1.53,0-2.76,1.24-2.76,2.76s1.24,2.76,2.76,2.76h16.85
			c1.53,0,2.76-1.24,2.76-2.76C85.89,42.59,84.66,41.35,83.13,41.35z"/>
		<path id="XMLID_1190_" class="st1" d="M83.13,54.61H66.28c-1.53,0-2.76,1.24-2.76,2.76c0,1.53,1.24,2.76,2.76,2.76h16.85
			c1.53,0,2.76-1.24,2.76-2.76C85.89,55.85,84.66,54.61,83.13,54.61z"/>
		<path id="XMLID_1602_" class="st1" d="M121.66,23.65h-4.48c-7.26-0.04-14.08-2.88-19.21-8.01c-2.9-2.9-6.26-5.2-9.98-6.84
			c-1.39-0.62-3.03,0.02-3.64,1.41s0.02,3.03,1.41,3.64c3.1,1.37,5.89,3.28,8.31,5.7c5.51,5.51,12.65,8.83,20.34,9.5v3.54
			c0,21.89-17.81,39.7-39.7,39.7c-21.89,0-39.7-17.81-39.7-39.7v-3.55c7.69-0.67,14.83-3.99,20.34-9.5c2.42-2.42,5.21-4.33,8.3-5.7
			c1.4-0.62,2.03-2.24,1.41-3.64c-0.62-1.4-2.25-2.03-3.64-1.41c-3.72,1.64-7.08,3.94-9.98,6.84c-5.13,5.13-11.95,7.98-19.21,8.01
			h-4.48C14.66,23.65,4,34.3,4,47.4c0,13.1,10.66,23.75,23.75,23.75h23.36c6.87,4.22,14.95,6.66,23.59,6.66s16.72-2.44,23.59-6.66
			h23.36c13.1,0,23.75-10.65,23.75-23.75C145.41,34.31,134.76,23.65,121.66,23.65L121.66,23.65z M27.75,65.63
			c-10.05,0-18.23-8.18-18.23-18.23c0-10.05,8.18-18.23,18.23-18.23h1.73v3.42c0,13.03,5.54,24.78,14.38,33.04
			C43.87,65.63,27.75,65.63,27.75,65.63z M121.66,65.63h-16.11c8.84-8.26,14.38-20.02,14.38-33.04v-3.42h1.73
			c10.05,0,18.23,8.18,18.23,18.23C139.89,57.45,131.71,65.63,121.66,65.63z"/>
		<path id="XMLID_1636_" class="st1" d="M74.71,11.52c0.73,0,1.44-0.3,1.95-0.81s0.81-1.23,0.81-1.95c0-0.73-0.3-1.44-0.81-1.95
			C76.15,6.3,75.43,6,74.71,6c-0.73,0-1.44,0.3-1.95,0.81c-0.51,0.52-0.81,1.23-0.81,1.95c0,0.73,0.29,1.44,0.81,1.95
			C73.27,11.23,73.98,11.52,74.71,11.52z"/>
	</g>
</g>
</svg>
