<?xml version="1.0" encoding="utf-8"?>
<!-- Generator: Adobe Illustrator 23.0.6, SVG Export Plug-In . SVG Version: 6.00 Build 0)  -->
<svg version="1.1" id="Capa_1" xmlns="http://www.w3.org/2000/svg" xmlns:xlink="http://www.w3.org/1999/xlink" x="0px" y="0px"
	 viewBox="0 0 150.41 102.81" style="enable-background:new 0 0 150.41 102.81;" xml:space="preserve">
<style type="text/css">
	.st0{fill:#BEDBF2;}
	.st1{fill:#377FB7;}
</style>
<g>
	<g>
		<path class="st0" d="M51.78,63.31h2.74v4.1h0.44l2.39-5.98l1.19,0.48c0.68-0.21,1.38-0.37,2.09-0.49L63.21,61
			c-0.51-0.54-0.95-1.14-1.3-1.8c0,0-8.11,0-8.11,0l-4.76,5.95v4.62c0,0.1,0.04,0.19,0.11,0.26c0.67-1.42,1.55-2.73,2.62-3.88V63.31
			z"/>
		<path class="st0" d="M83.97,76.56c0,0-13.99,5.82-14.04,5.84c0,0-9.83,2.79-9.95,2.79c-0.47,0-0.9-0.24-1.15-0.63l-3.48-5.41
			c-0.04-0.06-0.07-0.12-0.1-0.18c-0.31-0.69,0-1.5,0.69-1.81l4.74-2.13l-1.84-2.76c-0.03-0.05-0.06-0.1-0.09-0.15
			c-0.34-0.68-0.06-1.5,0.61-1.83l2.74-1.37c0.46-0.23,1.02-0.18,1.43,0.13l4.75,3.56l8.02-4.58l-0.76-7.65c0-0.01,0-0.01,0-0.02
			l-1.21-12.1h-5.45l-2.72,2.25c-0.03,0.02-0.06,0.05-0.09,0.07c-1.79,1.25-2.71,3.42-2.36,5.58c0.27,1.54,1.15,2.9,2.44,3.77
			l1.16,0.78c0.32,0.21,0.53,0.54,0.59,0.92c0.12,0.75-0.39,1.45-1.13,1.57l-5.72,0.92c-0.69,0.11-1.38,0.28-2.04,0.51l-1.86,4.66
			c-0.21,0.52-0.71,0.86-1.27,0.86h-2.74c-0.29,0-0.56-0.09-0.79-0.26c-1.27,2.02-1.94,4.35-1.94,6.74
			c-0.03,3.34,1.24,6.56,3.55,8.97c2.29,2.38,5.46,3.71,8.76,3.69c0.6,0,15.6-0.36,21.88-0.13V76.25
			C84.4,76.37,84.19,76.47,83.97,76.56z"/>
		<path class="st0" d="M74.3,45.53c0.1-0.57,0.27-1.13,0.51-1.65c-0.06-0.12-0.11-0.24-0.16-0.36l-2.44,2.01H74.3z"/>
		<path class="st0" d="M73.66,24.72c-3.23-0.94-6.05-2.95-8-5.7c-0.24,1.35-0.14,2.74,0.29,4.04l0.67,1.88
			c0.09,0.24,0.1,0.51,0.05,0.76l-0.77,3.4l2.2,1.46c0.26,0.17,0.45,0.42,0.54,0.71l0.95,2.9l4.07-0.73V24.72z"/>
		<path class="st0" d="M71.08,41.42c-1.59,0-2.88,1.29-2.88,2.88v0.98l4.69-3.87H71.08z"/>
		<path class="st0" d="M78.45,69.97l-9.57,5.47c-0.47,0.27-1.06,0.23-1.5-0.09l-4.79-3.6l-0.59,0.3l1.88,2.81
			c0.04,0.06,0.08,0.13,0.11,0.2c0.31,0.69,0,1.5-0.69,1.81L58.52,79l2.07,3.22l8.52-2.43l13.81-5.76h0
			c1.02-0.42,1.69-1.42,1.68-2.52V50.92c-2.92-0.33-5.63-1.69-7.64-3.85l1.3,13.04c0,0.01,0,0.01,0,0.02l0.85,8.51
			C79.18,69.18,78.91,69.7,78.45,69.97z"/>
		<path class="st0" d="M90.59,32.73l-1.65-1.18c-2.72-1.94-4.33-5.08-4.33-8.42c0-5.75-4.64-10.43-10.39-10.48
			c-0.02,0-0.04,0-0.06,0c-4.56-0.25-6.57,2.11-7.24,3.17c1.72,3.36,4.81,5.77,8.39,6.49c0.64,0.13,1.1,0.69,1.1,1.34v15.04
			c0.01,5.28,4.29,9.57,9.57,9.57c4.53-0.01,8.2-3.68,8.21-8.21V39.7C94.18,36.93,92.84,34.34,90.59,32.73z"/>
	</g>
	<g id="Outline_3_">
		<path class="st1" d="M92.18,30.5l-1.65-1.18c-2-1.43-3.18-3.74-3.19-6.19c0-7.24-5.83-13.13-13.07-13.21
			C66.94,9.53,64.05,15.37,64,15.46c-1.33,2.63-1.56,5.67-0.64,8.47c0,0.01,0.01,0.02,0.01,0.03l0.54,1.52l-0.89,3.93
			c-0.12,0.55,0.11,1.13,0.58,1.44l2.59,1.72l1.17,3.58c0.21,0.65,0.87,1.04,1.54,0.92l4.76-0.86v2.47h-2.59
			c-3.1,0-5.62,2.52-5.62,5.62v3.24l-0.99,0.82c-2.59,1.83-3.93,4.97-3.47,8.1h-7.85c-0.42,0-0.81,0.19-1.07,0.51l-5.47,6.84
			c-0.19,0.24-0.3,0.54-0.3,0.85v5.1c0,1.25,0.75,2.37,1.89,2.86c-0.35,1.3-0.53,2.64-0.53,3.99c0,4.13,1.53,7.99,4.32,10.87
			c2.5,2.59,5.51,4.21,9.09,4.52l26.26,0.01v-2.55c0-0.76-23.86-0.18-24.62-0.18c-3.3,0.02-6.47-1.31-8.76-3.69
			c-2.31-2.42-3.58-5.63-3.55-8.97c0-2.38,0.67-4.72,1.94-6.74c0.23,0.17,0.51,0.26,0.79,0.26h2.74c0.56,0,1.06-0.34,1.27-0.86
			l1.86-4.66c0.67-0.23,1.35-0.4,2.04-0.51l5.72-0.92c0.75-0.12,1.25-0.82,1.13-1.57c-0.06-0.38-0.27-0.71-0.59-0.92l-1.16-0.78
			c-1.29-0.88-2.17-2.24-2.44-3.77c-0.35-2.16,0.56-4.33,2.36-5.58c0.03-0.02,0.06-0.04,0.09-0.07l2.72-2.25h5.45l1.21,12.1
			c0,0.01,0,0.01,0,0.02l0.76,7.65l-8.02,4.58l-4.75-3.56c-0.41-0.31-0.97-0.36-1.43-0.13l-2.74,1.37
			c-0.68,0.34-0.95,1.16-0.61,1.83c0.03,0.05,0.05,0.1,0.09,0.15l1.84,2.76l-4.74,2.13c-0.69,0.31-1,1.12-0.69,1.81
			c0.03,0.06,0.06,0.12,0.1,0.18l3.48,5.41c0.25,0.39,0.69,0.63,1.15,0.63c0.12,0,9.95-2.79,9.95-2.79
			c0.05-0.01,14.04-5.84,14.04-5.84c0.22-0.09,0.43-0.2,0.63-0.32v15.78h2.74V50.91c5.47-0.7,9.57-5.34,9.57-10.85V39.7
			C96.91,36.05,95.15,32.63,92.18,30.5z M60.63,61.42c-0.71,0.11-1.4,0.28-2.09,0.49l-1.19-0.48l-2.39,5.98h-0.44v-4.1h-2.74v2.86
			c-1.07,1.15-1.95,2.46-2.62,3.88c-0.07-0.07-0.11-0.16-0.11-0.26v-4.62l4.76-5.95c0,0,8.1,0,8.11,0c0.35,0.65,0.79,1.26,1.3,1.8
			L60.63,61.42z M69.59,34.18l-0.95-2.9c-0.1-0.29-0.29-0.54-0.54-0.71l-2.2-1.46l0.77-3.4c0.06-0.25,0.04-0.52-0.05-0.76
			l-0.67-1.88c-0.42-1.3-0.52-2.69-0.29-4.04c1.94,2.75,4.76,4.76,8,5.7v8.72L69.59,34.18z M71.08,41.42h1.8l-4.69,3.87v-0.98
			C68.2,42.72,69.49,41.43,71.08,41.42L71.08,41.42z M74.65,43.51c0.05,0.12,0.11,0.24,0.16,0.36c-0.24,0.53-0.41,1.08-0.51,1.65
			h-2.1L74.65,43.51z M82.92,74.04l-13.81,5.76l-8.52,2.43L58.52,79l4.76-2.14c0.69-0.31,1-1.12,0.69-1.81
			c-0.03-0.07-0.07-0.14-0.11-0.2l-1.88-2.81l0.59-0.3l4.79,3.6c0.44,0.33,1.03,0.36,1.5,0.09l9.57-5.47
			c0.47-0.27,0.74-0.79,0.68-1.32l-0.85-8.51c0-0.01,0-0.01,0-0.02l-1.3-13.04c2,2.16,4.71,3.52,7.64,3.85v20.59
			C84.61,72.62,83.94,73.62,82.92,74.04L82.92,74.04z M94.18,40.06c-0.01,4.53-3.68,8.2-8.21,8.21c-5.28-0.01-9.57-4.29-9.57-9.57
			V23.65c0-0.65-0.46-1.21-1.1-1.34c-3.58-0.72-6.67-3.12-8.39-6.49c0.67-1.06,2.68-3.42,7.24-3.17c0.02,0,0.04,0,0.06,0
			c5.75,0.05,10.39,4.72,10.39,10.48c0,3.34,1.62,6.47,4.33,8.42l1.65,1.18c2.25,1.61,3.58,4.2,3.59,6.97V40.06z"/>
	</g>
</g>
</svg>
