<?xml version="1.0" encoding="utf-8"?>
<!-- Generator: Adobe Illustrator 23.0.6, SVG Export Plug-In . SVG Version: 6.00 Build 0)  -->
<svg version="1.1" id="Capa_1" xmlns="http://www.w3.org/2000/svg" xmlns:xlink="http://www.w3.org/1999/xlink" x="0px" y="0px"
	 viewBox="0 0 150.41 102.81" style="enable-background:new 0 0 150.41 102.81;" xml:space="preserve">
<style type="text/css">
	.st0{fill:#BEDBF2;}
	.st1{fill:#0E80B6;}
</style>
<polygon class="st0" points="411.06,57.02 406.06,57.02 406.06,59.52 406.06,65.15 402.34,68.87 398.55,65.08 398.55,59.52 
	398.55,57.02 393.54,57.02 393.54,69.53 391.04,69.53 391.04,84.55 413.57,84.55 413.57,69.53 411.06,69.53 "/>
<path class="st1" d="M414.82,68.28h-2.5V55.76h-7.51v2.5h-5.01v-2.5h-7.51v12.52h-2.5V85.8h25.03V68.28z M399.8,60.77h5.01v3.86
	l-2.47,2.47l-2.54-2.54V60.77z M412.32,83.3h-20.03V70.78h2.5V58.27h2.5v2.5v4.82l5.04,5.04l4.97-4.97v-4.9v-2.5h2.5v12.52h2.5V83.3
	z"/>
<g>
	<polygon class="st0" points="82.9,70.99 86.88,82.94 116.77,82.94 116.77,39.11 82.9,39.11 	"/>
	<polygon class="st0" points="29.1,82.94 58.99,82.94 62.97,70.99 62.97,39.11 29.1,39.11 	"/>
</g>
<path class="st1" d="M25.11,35.12v7.97v43.84h36.74l3.99-11.96h1.11h11.96h1.11l3.99,11.96h36.74V43.09v-7.97V19.18H25.11V35.12z
	 M78.91,67H66.96V43.09h11.96V67z M112.78,78.96H89.75l-2.87-8.62V43.09h25.9V78.96z M33.08,27.15h79.7v7.97h-25.9h-7.97H66.96
	h-7.97h-25.9V27.15z M33.08,43.09h25.9v27.25l-2.87,8.62H33.08V43.09z"/>
</svg>
