<?xml version="1.0" encoding="utf-8"?>
<!-- Generator: Adobe Illustrator 23.0.6, SVG Export Plug-In . SVG Version: 6.00 Build 0)  -->
<svg version="1.1" id="Capa_1" xmlns="http://www.w3.org/2000/svg" xmlns:xlink="http://www.w3.org/1999/xlink" x="0px" y="0px"
	 viewBox="0 0 150.41 102.81" style="enable-background:new 0 0 150.41 102.81;" xml:space="preserve">
<style type="text/css">
	.st0{fill:#BEDBF2;}
	.st1{fill:#0E80B6;}
</style>
<g>
	<g>
		<path class="st0" d="M50.5,51.26c-8.22-3.01-15.29-3.08-15.29-3.08L19.69,68.47l4.92,20.48l51.07,0.47
			C75.9,65.54,62.05,55.5,50.5,51.26z"/>
		<path class="st0" d="M101.57,51.73C89.94,55.76,75.9,65.54,75.68,89.41l51.07,0.47l5.3-20.38l-15.13-20.57
			C116.92,48.94,109.84,48.87,101.57,51.73z"/>
	</g>
	<path class="st1" d="M122.35,13.23l-10.21-0.09l-0.29,31.04c-3.12,0.37-7.37,1.14-11.96,2.72c-11.02,3.82-19.13,10.64-24,19.85
		c-4.7-9.3-12.69-16.27-23.64-20.29c-4.56-1.67-8.79-2.52-11.9-2.94l0.29-31.04l-10.21-0.09l-0.31,34.05L14.16,67.29l6.42,26.72
		l49.95,0.46l10.21,0.09l49.95,0.46l6.91-26.59l-15.57-21.16L122.35,13.23z M28.65,83.87l-3.42-14.24l12.36-16.17
		c2.5,0.27,6.66,0.94,11.15,2.59c13.1,4.81,20.36,14.29,21.64,28.2L28.65,83.87z M126.5,70.57l-3.68,14.17l-41.73-0.39
		c1.53-13.89,8.97-23.23,22.15-27.8c4.53-1.56,8.69-2.16,11.19-2.38L126.5,70.57z"/>
</g>
</svg>
