<?xml version="1.0" encoding="utf-8"?>
<!-- Generator: Adobe Illustrator 23.0.6, SVG Export Plug-In . SVG Version: 6.00 Build 0)  -->
<svg version="1.1" id="Capa_1" xmlns="http://www.w3.org/2000/svg" xmlns:xlink="http://www.w3.org/1999/xlink" x="0px" y="0px"
	 viewBox="0 0 150.41 102.81" style="enable-background:new 0 0 150.41 102.81;" xml:space="preserve">
<style type="text/css">
	.st0{fill:#BEDBF2;}
	.st1{fill:#0E80B6;}
	.st2{fill:#0E80B6;stroke:#0E80B6;stroke-width:2.5443;stroke-miterlimit:10;}
</style>
<polygon class="st0" points="411.06,57.02 406.06,57.02 406.06,59.52 406.06,65.15 402.34,68.87 398.55,65.08 398.55,59.52 
	398.55,57.02 393.54,57.02 393.54,69.53 391.04,69.53 391.04,84.55 413.57,84.55 413.57,69.53 411.06,69.53 "/>
<path class="st1" d="M414.82,68.28h-2.5V55.76h-7.51v2.5h-5.01v-2.5h-7.51v12.52h-2.5V85.8h25.03V68.28z M399.8,60.77h5.01v3.86
	l-2.47,2.47l-2.54-2.54V60.77z M412.32,83.3h-20.03V70.78h2.5V58.27h2.5v2.5v4.82l5.04,5.04l4.97-4.97v-4.9v-2.5h2.5v12.52h2.5V83.3
	z"/>
<polygon class="st0" points="382.8,255.42 382.8,264.59 394.64,269.72 397.55,272.29 401.01,271.51 404.14,269.28 411.63,265.81 
	414.53,264.14 414.53,255.2 "/>
<g>
	<path class="st1" d="M415.5,264.66v-9.54c0-0.59-0.48-1.06-1.06-1.06H382.9c-0.59,0-1.06,0.48-1.06,1.06v9.54
		c0,0.41,0.24,0.79,0.6,0.96l11.49,5.49l0.01,0.01c1.28,1.24,2.95,1.92,4.72,1.92c1.77,0,3.44-0.68,4.72-1.92l0.01-0.01l0.02-0.01
		l11.47-5.48C415.26,265.44,415.5,265.07,415.5,264.66z M383.96,263.99v-3.83h7.91v6.09c0,0.46,0.05,0.93,0.14,1.38l0.05,0.23
		L383.96,263.99z M403.33,266.25c0,2.57-2.09,4.66-4.66,4.66c-2.57,0-4.66-2.09-4.66-4.66v-6.09h9.32V266.25L403.33,266.25z
		 M413.37,263.99l-8.1,3.87l0.05-0.23c0.09-0.45,0.14-0.92,0.14-1.38v-6.09h7.91L413.37,263.99L413.37,263.99z M413.37,258.03h-29.4
		v-1.85h29.4V258.03L413.37,258.03z"/>
</g>
<g>
	<polygon class="st0" points="54.76,23.54 67.24,29.96 78.3,28.24 90.5,23.54 90.57,36.26 93.79,53.76 95.57,78.03 98.17,85.77 
		89.68,88.58 75.22,89.45 61.45,90.74 50.58,87.16 44.88,83.03 	"/>
	<g>
		<g>
			<path class="st2" d="M101.49,85.94l-8.45-44.21l0.69-16.51l0-0.35V11.79c0-0.89-0.72-1.61-1.61-1.61c-0.89,0-1.61,0.72-1.61,1.61
				v11.75h-5.04c-2.91,0-5.75,0.58-8.43,1.73l-4.4,1.89l-4.4-1.89c-2.68-1.15-5.51-1.73-8.43-1.73h-5.04V11.79
				c0-0.89-0.72-1.61-1.61-1.61c-0.89,0-1.61,0.72-1.61,1.61v13.08l0,0.35l0.69,16.51l-8.45,44.21c-0.09,0.48,0.04,0.98,0.36,1.36
				l0.24,0.28c1.57,1.82,3.84,2.84,6.24,2.81c1.85-0.02,3.62-0.68,5.03-1.83c1.56,1.47,3.65,2.26,5.8,2.19
				c1.97-0.06,3.85-0.84,5.27-2.17l0.31,0.3c1.53,1.49,3.53,2.31,5.66,2.31c0.06,0,0.13,0,0.19,0c2.2-0.05,4.24-0.97,5.74-2.58
				l0.02-0.02c1.56,1.45,3.64,2.23,5.77,2.16c1.97-0.06,3.84-0.84,5.27-2.17c1.52,1.23,3.44,1.87,5.42,1.8
				c2.4-0.1,4.62-1.24,6.09-3.14C101.47,86.86,101.58,86.39,101.49,85.94z M59.8,26.77c2.47,0,4.88,0.49,7.16,1.47L72,30.39
				c0.41,0.17,0.87,0.17,1.27,0l5.04-2.16c2.27-0.97,4.68-1.47,7.16-1.47h4.97l-0.56,13.47H55.39l-0.56-13.47H59.8z M94.97,87.15
				c-1.44,0.06-2.83-0.52-3.8-1.59l-0.36-0.4c-0.31-0.34-0.76-0.54-1.23-0.53c-0.47,0.01-0.9,0.22-1.2,0.57l-0.49,0.58
				c-0.9,1.07-2.17,1.69-3.58,1.74c-1.41,0.04-2.71-0.49-3.68-1.51l-0.84-0.88c-0.3-0.32-0.73-0.5-1.17-0.5c0,0-0.01,0-0.01,0
				c-0.44,0-0.87,0.19-1.17,0.51l-1.17,1.26c-0.9,0.97-2.13,1.52-3.45,1.55c-1.33,0.03-2.57-0.46-3.52-1.39l-1.51-1.48
				c-0.3-0.3-0.71-0.46-1.13-0.46c-0.03,0-0.05,0-0.08,0c-0.45,0.02-0.87,0.23-1.16,0.57l-0.49,0.58c-0.9,1.07-2.17,1.69-3.58,1.74
				c-1.4,0.04-2.71-0.49-3.68-1.51l-0.84-0.88c-0.32-0.33-0.77-0.52-1.23-0.5c-0.46,0.02-0.89,0.23-1.19,0.59l-0.12,0.15
				c-0.91,1.12-2.27,1.77-3.71,1.79c-1.31,0.02-2.56-0.49-3.48-1.4l8.09-42.29h34.9l8.09,42.3C97.32,86.6,96.18,87.1,94.97,87.15z"
				/>
		</g>
	</g>
</g>
</svg>
