<?xml version="1.0" encoding="utf-8"?>
<!-- Generator: Adobe Illustrator 23.0.6, SVG Export Plug-In . SVG Version: 6.00 Build 0)  -->
<svg version="1.1" id="Capa_1" xmlns="http://www.w3.org/2000/svg" xmlns:xlink="http://www.w3.org/1999/xlink" x="0px" y="0px"
	 viewBox="0 0 150.41 102.81" style="enable-background:new 0 0 150.41 102.81;" xml:space="preserve">
<style type="text/css">
	.st0{fill:#367EB5;}
	.st1{fill:#BFD6E7;}
</style>
<g>
	<g>
		<g>
			<path class="st0" d="M121.13,23.19c-0.86-0.86-2.02-1.34-3.23-1.34c-0.21,0.01-0.41,0.03-0.62,0.06l-8.4-8.4
				c-0.41-0.41-1.03-0.54-1.57-0.32c-0.24-1.05-0.77-2.01-1.53-2.78c-1.1-1.09-2.58-1.71-4.13-1.71h-4.03
				c-0.81,0-1.46,0.66-1.46,1.46c0,0.16,0.03,0.31,0.07,0.46l1.01,3.03c0.11,0.31,0.03,0.65-0.2,0.88L86.35,25.21
				c-1.78,1.76-1.81,4.62-0.05,6.41c0.76,0.78,1.78,1.25,2.87,1.34c0.03,0.06,0.07,0.11,0.11,0.17l7.05,7.05l-15.3,4.7
				c-1.14,0.35-2.18,0.98-3.02,1.82L36.09,88.62c-1.78,1.78-1.78,4.67,0,6.45c1.78,1.78,4.67,1.78,6.45,0l42.43-42.43
				c0.17-0.17,0.38-0.29,0.61-0.36l16.92-5.21c1.14-0.35,2.17-0.98,3.02-1.82l15.61-15.61C122.91,27.86,122.91,24.98,121.13,23.19z
				 M105.78,18.68l2.07-2.07l6.7,6.7l-2.32,2.32l-6.7-6.7L105.78,18.68z M101.14,23.32l2.32-2.32l6.7,6.7l-2.32,2.32L101.14,23.32z
				 M105.78,32.09l-2.32,2.32l-6.7-6.7l2.32-2.32L105.78,32.09z M88.42,29.6c-0.64-0.64-0.64-1.68,0-2.32L99.1,16.6
				c1.02-1.01,1.37-2.51,0.91-3.87l-0.37-1.11h2c1.61,0,2.92,1.31,2.92,2.92c0,0.78-0.31,1.52-0.86,2.07L90.74,29.6
				C90.1,30.24,89.06,30.24,88.42,29.6z M92.37,32.09l0.43-0.43l1.89-1.89l6.7,6.7l-2.32,2.32L92.37,32.09z M119.06,27.58
				l-15.6,15.61c-0.51,0.5-1.13,0.88-1.81,1.09l-16.93,5.21c-0.68,0.21-1.3,0.59-1.81,1.09L40.48,93.01c-0.64,0.64-1.68,0.64-2.32,0
				c-0.64-0.64-0.64-1.68,0-2.32l41.92-41.92c0.51-0.51,1.13-0.88,1.81-1.09l16.93-5.21c0.68-0.21,1.3-0.59,1.81-1.09l16.12-16.12
				c0.64-0.64,1.68-0.64,2.32,0C119.7,25.9,119.7,26.94,119.06,27.58L119.06,27.58z"/>
		</g>
	</g>
	<path class="st1" d="M88.42,29.6c-0.64-0.64-0.64-1.68,0-2.32L99.1,16.6c1.02-1.01,1.37-2.51,0.91-3.87l-0.37-1.11h2
		c1.61,0,2.92,1.31,2.92,2.92c0,0.78-0.31,1.52-0.86,2.07L90.74,29.6C90.1,30.24,89.06,30.24,88.42,29.6z"/>
	<polygon class="st1" points="97.03,27.45 99.1,25.38 105.8,32.09 103.48,34.41 96.78,27.7 	"/>
	<polygon class="st1" points="101.38,23.03 103.45,20.96 110.15,27.66 107.83,29.98 101.13,23.28 	"/>
	<polygon class="st1" points="105.8,18.7 107.87,16.63 114.57,23.34 112.25,25.66 105.55,18.95 	"/>
	<polygon class="st1" points="92.64,31.83 94.7,29.76 101.41,36.47 99.09,38.79 92.38,32.08 	"/>
	<path class="st1" d="M119.06,27.58l-15.6,15.61c-0.51,0.5-1.13,0.88-1.81,1.09l-16.93,5.21c-0.68,0.21-1.3,0.59-1.81,1.09
		L40.48,93.01c-0.64,0.64-1.68,0.64-2.32,0c-0.64-0.64-0.64-1.68,0-2.32l41.92-41.92c0.51-0.51,1.13-0.88,1.81-1.09l16.93-5.21
		c0.68-0.21,1.3-0.59,1.81-1.09l16.12-16.12c0.64-0.64,1.68-0.64,2.32,0C119.7,25.9,119.7,26.94,119.06,27.58L119.06,27.58z"/>
</g>
</svg>
