<?xml version="1.0" encoding="utf-8"?>
<!-- Generator: Adobe Illustrator 23.0.6, SVG Export Plug-In . SVG Version: 6.00 Build 0)  -->
<svg version="1.1" id="Capa_1" xmlns="http://www.w3.org/2000/svg" xmlns:xlink="http://www.w3.org/1999/xlink" x="0px" y="0px"
	 viewBox="0 0 150.41 102.81" style="enable-background:new 0 0 150.41 102.81;" xml:space="preserve">
<style type="text/css">
	.st0{fill:#BEDBF2;}
	.st1{fill:#0E80B6;}
</style>
<polygon class="st0" points="411.06,57.02 406.06,57.02 406.06,59.52 406.06,65.15 402.34,68.87 398.55,65.08 398.55,59.52 
	398.55,57.02 393.54,57.02 393.54,69.53 391.04,69.53 391.04,84.55 413.57,84.55 413.57,69.53 411.06,69.53 "/>
<path class="st1" d="M414.82,68.28h-2.5V55.76h-7.51v2.5h-5.01v-2.5h-7.51v12.52h-2.5V85.8h25.03V68.28z M399.8,60.77h5.01v3.86
	l-2.47,2.47l-2.54-2.54V60.77z M412.32,83.3h-20.03V70.78h2.5V58.27h2.5v2.5v4.82l5.04,5.04l4.97-4.97v-4.9v-2.5h2.5v12.52h2.5V83.3
	z"/>
<polygon class="st0" points="382.8,255.42 382.8,264.59 394.64,269.72 397.55,272.29 401.01,271.51 404.14,269.28 411.63,265.81 
	414.53,264.14 414.53,255.2 "/>
<g>
	<path class="st1" d="M415.5,264.66v-9.54c0-0.59-0.48-1.06-1.06-1.06H382.9c-0.59,0-1.06,0.48-1.06,1.06v9.54
		c0,0.41,0.24,0.79,0.6,0.96l11.49,5.49l0.01,0.01c1.28,1.24,2.95,1.92,4.72,1.92c1.77,0,3.44-0.68,4.72-1.92l0.01-0.01l0.02-0.01
		l11.47-5.48C415.26,265.44,415.5,265.07,415.5,264.66z M383.96,263.99v-3.83h7.91v6.09c0,0.46,0.05,0.93,0.14,1.38l0.05,0.23
		L383.96,263.99z M403.33,266.25c0,2.57-2.09,4.66-4.66,4.66c-2.57,0-4.66-2.09-4.66-4.66v-6.09h9.32V266.25L403.33,266.25z
		 M413.37,263.99l-8.1,3.87l0.05-0.23c0.09-0.45,0.14-0.92,0.14-1.38v-6.09h7.91L413.37,263.99L413.37,263.99z M413.37,258.03h-29.4
		v-1.85h29.4V258.03L413.37,258.03z"/>
</g>
<polygon class="st0" points="33.88,62.43 41.42,72.48 55.24,86.93 75.98,89.45 92.65,83.16 101.14,72.48 108.65,65.99 113.68,58.66 
	108.02,52.37 103,39.81 83.59,29.13 67.49,28.5 47.07,34.78 40.16,41.06 36.39,54.36 "/>
<g>
	<g>
		<ellipse class="st1" cx="72.65" cy="65.99" rx="5.16" ry="2.06"/>
		<path class="st1" d="M111.37,50.26c-0.44-4.4-1.42-9.73-3.13-13.49c-0.42-0.91-10.4-22.09-35.59-22.09c-6.52,0-12,1.4-16.55,3.5
			c-7.68,2.9-13.6,8.27-17.26,15.57c-1.05,1.72-1.59,2.91-1.67,3.1c-1.67,3.67-2.64,8.93-3.09,13.3C31,52.48,29,56.28,29,60.57
			c0,5.92,3.82,10.91,8.99,12.38c6.56,12.8,19.91,21.08,34.73,21.08c14.83,0,28.19-8.3,34.75-21.12c5.1-1.53,8.84-6.48,8.84-12.34
			C116.3,56.35,114.36,52.6,111.37,50.26z M104.13,65.86c-0.6,0-1.16-0.14-1.69-0.38c-4.2,12.21-15.91,21.01-29.73,21.01
			c-13.83,0-25.56-8.82-29.74-21.05c-0.56,0.27-1.16,0.42-1.81,0.42c-2.57,0-4.63-2.37-4.63-5.29c0-2.92,2.06-5.29,4.63-5.29
			c0.05,0,0.09,0.01,0.14,0.02c0.01-1.62,0.16-3.63,0.42-5.7c0.37,0.02,0.73,0.04,1.11,0.04c6.52,0,13.87-2.63,20.28-7.23
			c3.3,2.74,7.9,5.78,12.12,5.78h1.18l-0.27-1.15c-0.02-0.07-1.42-6.3-1.74-11.84c2,2.4,4.28,4.58,6.81,6.51
			c6.64,5.05,14.39,7.95,21.25,7.95c0.42,0,0.83-0.03,1.23-0.05c0.26,2.06,0.4,4.06,0.42,5.68c0.01,0,0.01,0,0.02,0
			c2.57,0,4.63,2.37,4.63,5.29C108.76,63.49,106.7,65.86,104.13,65.86z"/>
		<circle class="st1" cx="58.63" cy="53.33" r="4.55"/>
		<circle class="st1" cx="86.67" cy="53.33" r="4.55"/>
	</g>
</g>
</svg>
