<?xml version="1.0" encoding="utf-8"?>
<!-- Generator: Adobe Illustrator 23.0.6, SVG Export Plug-In . SVG Version: 6.00 Build 0)  -->
<svg version="1.1" id="Capa_1" xmlns="http://www.w3.org/2000/svg" xmlns:xlink="http://www.w3.org/1999/xlink" x="0px" y="0px"
	 viewBox="0 0 150.41 102.81" style="enable-background:new 0 0 150.41 102.81;" xml:space="preserve">
<style type="text/css">
	.st0{fill:#BEDBF2;}
	.st1{fill:#0E80B6;}
</style>
<polygon class="st0" points="411.06,57.02 406.06,57.02 406.06,59.52 406.06,65.15 402.34,68.87 398.55,65.08 398.55,59.52 
	398.55,57.02 393.54,57.02 393.54,69.53 391.04,69.53 391.04,84.55 413.57,84.55 413.57,69.53 411.06,69.53 "/>
<path class="st1" d="M414.82,68.28h-2.5V55.76h-7.51v2.5h-5.01v-2.5h-7.51v12.52h-2.5V85.8h25.03V68.28z M399.8,60.77h5.01v3.86
	l-2.47,2.47l-2.54-2.54V60.77z M412.32,83.3h-20.03V70.78h2.5V58.27h2.5v2.5v4.82l5.04,5.04l4.97-4.97v-4.9v-2.5h2.5v12.52h2.5V83.3
	z"/>
<polygon class="st0" points="103.45,10.57 89.72,10.57 89.72,18.19 89.72,35.33 79.53,46.64 69.13,35.1 69.13,18.19 69.13,10.57 
	55.4,10.57 55.4,48.66 48.53,48.66 48.53,94.37 110.32,94.37 110.32,48.66 103.45,48.66 "/>
<path class="st1" d="M113.75,44.85h-6.87V6.76h-20.6v7.62H72.56V6.76h-20.6v38.09H45.1v53.33h68.66V44.85z M72.56,22h13.73v11.75
	l-6.76,7.5l-6.97-7.73V22z M106.89,90.56H51.96V52.47h6.87V14.38h6.87V22v14.68l13.83,15.35l13.63-15.12V22v-7.62h6.87v38.09h6.87
	V90.56z"/>
</svg>
