<?xml version="1.0" encoding="utf-8"?>
<!-- Generator: Adobe Illustrator 23.0.6, SVG Export Plug-In . SVG Version: 6.00 Build 0)  -->
<svg version="1.1" id="Capa_1" xmlns="http://www.w3.org/2000/svg" xmlns:xlink="http://www.w3.org/1999/xlink" x="0px" y="0px"
	 viewBox="0 0 150.41 102.81" style="enable-background:new 0 0 150.41 102.81;" xml:space="preserve">
<style type="text/css">
	.st0{fill:#BEDBF2;}
	.st1{fill:#0E80B6;}
</style>
<polygon class="st0" points="411.06,57.02 406.06,57.02 406.06,59.52 406.06,65.15 402.34,68.87 398.55,65.08 398.55,59.52 
	398.55,57.02 393.54,57.02 393.54,69.53 391.04,69.53 391.04,84.55 413.57,84.55 413.57,69.53 411.06,69.53 "/>
<path class="st1" d="M414.82,68.28h-2.5V55.76h-7.51v2.5h-5.01v-2.5h-7.51v12.52h-2.5V85.8h25.03V68.28z M399.8,60.77h5.01v3.86
	l-2.47,2.47l-2.54-2.54V60.77z M412.32,83.3h-20.03V70.78h2.5V58.27h2.5v2.5v4.82l5.04,5.04l4.97-4.97v-4.9v-2.5h2.5v12.52h2.5V83.3
	z"/>
<polygon class="st0" points="382.8,255.42 382.8,264.59 394.64,269.72 397.55,272.29 401.01,271.51 404.14,269.28 411.63,265.81 
	414.53,264.14 414.53,255.2 "/>
<g>
	<path class="st1" d="M415.5,264.66v-9.54c0-0.59-0.48-1.06-1.06-1.06H382.9c-0.59,0-1.06,0.48-1.06,1.06v9.54
		c0,0.41,0.24,0.79,0.6,0.96l11.49,5.49l0.01,0.01c1.28,1.24,2.95,1.92,4.72,1.92c1.77,0,3.44-0.68,4.72-1.92l0.01-0.01l0.02-0.01
		l11.47-5.48C415.26,265.44,415.5,265.07,415.5,264.66z M383.96,263.99v-3.83h7.91v6.09c0,0.46,0.05,0.93,0.14,1.38l0.05,0.23
		L383.96,263.99z M403.33,266.25c0,2.57-2.09,4.66-4.66,4.66c-2.57,0-4.66-2.09-4.66-4.66v-6.09h9.32V266.25L403.33,266.25z
		 M413.37,263.99l-8.1,3.87l0.05-0.23c0.09-0.45,0.14-0.92,0.14-1.38v-6.09h7.91L413.37,263.99L413.37,263.99z M413.37,258.03h-29.4
		v-1.85h29.4V258.03L413.37,258.03z"/>
</g>
<path class="st0" d="M53.92,29.3l-15.58,56.1l18.55,5.46c7.12,1.69,12.12,2.35,21.37,2.24c6.97-0.09,14.64-1.25,21.28-2.59
	l17.83-4.83L103.5,30.43l-32.27-0.66L53.92,29.3z"/>
<path class="st1" d="M51.83,93.34c9.21,2.18,17.79,3.28,25.55,3.28c0.31,0,0.62,0,0.92,0c6.24-0.09,13.61-0.97,21.94-2.68
	c9.87-2.02,17.46-4.42,17.77-4.53l3.14-1.01L106.4,29.33V12.18H50.12v17.15L35.38,88.26l2.92,1.1
	C38.55,89.45,43.89,91.45,51.83,93.34z M78.22,89.58c-5.28,0.07-10.99-0.46-17.11-1.52l12.91-54.77h8.49l12.82,54.44
	C88.88,88.9,83.14,89.51,78.22,89.58z M112.74,83.64c-2.46,0.7-6.18,1.69-10.51,2.68L89.74,33.29h10.4L112.74,83.64z M57.15,19.22
	h42.22v7.04H88.09H84.9H71.64h-3.19h-11.3V19.22z M56.38,33.29h10.4L54.23,86.65c-0.26-0.07-0.51-0.11-0.75-0.18
	c-4.09-0.97-7.48-1.98-9.72-2.7L56.38,33.29z"/>
</svg>
