<?xml version="1.0" encoding="utf-8"?>
<!-- Generator: Adobe Illustrator 23.0.6, SVG Export Plug-In . SVG Version: 6.00 Build 0)  -->
<svg version="1.1" id="Capa_1" xmlns="http://www.w3.org/2000/svg" xmlns:xlink="http://www.w3.org/1999/xlink" x="0px" y="0px"
	 viewBox="0 0 150.41 102.81" style="enable-background:new 0 0 150.41 102.81;" xml:space="preserve">
<style type="text/css">
	.st0{fill:#BEDBF2;}
	.st1{fill:#0E80B6;}
</style>
<polygon class="st0" points="411.06,57.02 406.06,57.02 406.06,59.52 406.06,65.15 402.34,68.87 398.55,65.08 398.55,59.52 
	398.55,57.02 393.54,57.02 393.54,69.53 391.04,69.53 391.04,84.55 413.57,84.55 413.57,69.53 411.06,69.53 "/>
<path class="st1" d="M414.82,68.28h-2.5V55.76h-7.51v2.5h-5.01v-2.5h-7.51v12.52h-2.5V85.8h25.03V68.28z M399.8,60.77h5.01v3.86
	l-2.47,2.47l-2.54-2.54V60.77z M412.32,83.3h-20.03V70.78h2.5V58.27h2.5v2.5v4.82l5.04,5.04l4.97-4.97v-4.9v-2.5h2.5v12.52h2.5V83.3
	z"/>
<polygon class="st0" points="382.8,255.42 382.8,264.59 394.64,269.72 397.55,272.29 401.01,271.51 404.14,269.28 411.63,265.81 
	414.53,264.14 414.53,255.2 "/>
<g>
	<path class="st1" d="M415.5,264.66v-9.54c0-0.59-0.48-1.06-1.06-1.06H382.9c-0.59,0-1.06,0.48-1.06,1.06v9.54
		c0,0.41,0.24,0.79,0.6,0.96l11.49,5.49l0.01,0.01c1.28,1.24,2.95,1.92,4.72,1.92c1.77,0,3.44-0.68,4.72-1.92l0.01-0.01l0.02-0.01
		l11.47-5.48C415.26,265.44,415.5,265.07,415.5,264.66z M383.96,263.99v-3.83h7.91v6.09c0,0.46,0.05,0.93,0.14,1.38l0.05,0.23
		L383.96,263.99z M403.33,266.25c0,2.57-2.09,4.66-4.66,4.66c-2.57,0-4.66-2.09-4.66-4.66v-6.09h9.32V266.25L403.33,266.25z
		 M413.37,263.99l-8.1,3.87l0.05-0.23c0.09-0.45,0.14-0.92,0.14-1.38v-6.09h7.91L413.37,263.99L413.37,263.99z M413.37,258.03h-29.4
		v-1.85h29.4V258.03L413.37,258.03z"/>
</g>
<polygon class="st0" points="54.78,28.76 45.11,55.36 56.4,81.16 79.02,86.8 102.38,75.51 110.41,59.39 110.41,43.27 95.9,25.53 
	66.07,16.66 "/>
<path class="st1" d="M28.66,87.97c-1.95-17.64,6.48-28.28,9.72-31.7c3,18.26,18.77,32.28,37.86,32.28
	c18.09,0,33.18-12.59,37.3-29.45c3.1,5.51,8.35,16.78,7.08,28.87c32.07-0.27,16.27-36.93-6.22-40.95c-0.16-1.88-0.3-3.75-0.73-5.56
	c-1.32-11.59-11.7-35.14-41.42-34.42C46.61,7.65,41.01,26.94,39.67,38.7c-0.9,2.91-1.48,5.92-1.68,9.05
	C4.61,53.56,8.29,87.43,28.66,87.97z M56.68,39.19c0,0,3.6,1.22,3.6,12.94c6.2,2.17,16.95-18.19,16.95-18.19v16.03
	c6.88,1.85,28.45-0.63,28.45-0.63l0.8,0.7c0.03,0.34,0.1,0.67,0.1,1.03c0,16.65-13.55,30.2-30.17,30.2
	c-16.42,0-29.77-13.19-30.12-29.54C52.28,49.55,56.68,39.19,56.68,39.19z"/>
<ellipse class="st1" cx="76.78" cy="70.16" rx="5.16" ry="2.06"/>
<circle class="st1" cx="62.76" cy="57.51" r="4.55"/>
<circle class="st1" cx="90.8" cy="57.51" r="4.55"/>
</svg>
