<?xml version="1.0" encoding="utf-8"?>
<!-- Generator: Adobe Illustrator 23.0.6, SVG Export Plug-In . SVG Version: 6.00 Build 0)  -->
<svg version="1.1" id="Capa_1" xmlns="http://www.w3.org/2000/svg" xmlns:xlink="http://www.w3.org/1999/xlink" x="0px" y="0px"
	 viewBox="0 0 150.41 102.81" style="enable-background:new 0 0 150.41 102.81;" xml:space="preserve">
<style type="text/css">
	.st0{fill:#1E78B1;stroke:#1E78B1;stroke-width:2;stroke-miterlimit:10;}
	.st1{fill:#BBD1EC;}
</style>
<g>
	<g>
		<path class="st0" d="M66.13,16.88c-0.15-1.06-1.06-1.85-2.13-1.85h-8.61c-1.07,0-1.98,0.79-2.13,1.85l-4.14,29.25
			c-2.67,1.32-8.8,5.11-8.8,12.25c0,7.86,8.38,27.88,8.78,28.82c0.34,0.81,1.13,1.33,1.99,1.33c0,0,0.01,0,0.01,0h17.2
			c0.92,0,1.68-0.55,2-1.33c0.39-0.94,8.78-20.96,8.78-28.82c0-7.13-6.13-10.93-8.8-12.25L66.13,16.88z M57.26,19.34h4.87l3.7,26.13
			H53.56L57.26,19.34z M74.77,58.38c0,5.41-5.27,19.41-7.9,25.84H52.52c-2.63-6.42-7.9-20.43-7.9-25.84c0-5.19,5.49-7.99,6.89-8.61
			h16.36C69.29,50.39,74.77,53.15,74.77,58.38z"/>
		<path class="st0" d="M102.76,49.77c1.31,0,2.32-1.16,2.13-2.46l-4.31-30.43c-0.15-1.06-1.06-1.85-2.13-1.85h-8.61
			c-1.07,0-1.98,0.79-2.13,1.85L83.4,47.31c-0.18,1.29,0.82,2.46,2.13,2.46h6.46v22.06c-4.2,2.12-6.46,10.13-6.46,14.54
			c0,1.19,0.96,2.15,2.15,2.15h12.92c1.19,0,2.15-0.96,2.15-2.15c0-4.41-2.26-12.42-6.46-14.54V49.77H102.76z M98.26,84.22h-8.24
			c0.75-4.78,3.08-8.61,4.12-8.61C95.21,75.61,97.52,79.5,98.26,84.22z M91.71,19.34h4.87l3.7,26.13H88.01L91.71,19.34z"/>
	</g>
	<path class="st1" d="M74.77,58.38c0,5.41-5.27,19.41-7.9,25.84H52.52c-2.63-6.42-7.9-20.43-7.9-25.84c0-5.19,5.49-7.99,6.89-8.61
		h16.36C69.29,50.39,74.77,53.15,74.77,58.38z"/>
	<path class="st1" d="M98.26,84.22h-8.24c0.75-4.78,3.08-8.61,4.12-8.61C95.21,75.61,97.52,79.5,98.26,84.22z"/>
	<polygon class="st1" points="91.71,19.34 96.58,19.34 100.28,45.46 88.01,45.46 	"/>
	<polygon class="st1" points="57.26,19.34 62.13,19.34 65.83,45.46 53.56,45.46 	"/>
</g>
</svg>
