<?xml version="1.0" encoding="utf-8"?>
<!-- Generator: Adobe Illustrator 23.0.6, SVG Export Plug-In . SVG Version: 6.00 Build 0)  -->
<svg version="1.1" id="Capa_1" xmlns="http://www.w3.org/2000/svg" xmlns:xlink="http://www.w3.org/1999/xlink" x="0px" y="0px"
	 viewBox="0 0 150.41 102.81" style="enable-background:new 0 0 150.41 102.81;" xml:space="preserve">
<style type="text/css">
	.st0{fill:#BEDBF2;}
	.st1{fill:#0E80B6;}
</style>
<polygon class="st0" points="411.06,57.02 406.06,57.02 406.06,59.52 406.06,65.15 402.34,68.87 398.55,65.08 398.55,59.52 
	398.55,57.02 393.54,57.02 393.54,69.53 391.04,69.53 391.04,84.55 413.57,84.55 413.57,69.53 411.06,69.53 "/>
<path class="st1" d="M414.82,68.28h-2.5V55.76h-7.51v2.5h-5.01v-2.5h-7.51v12.52h-2.5V85.8h25.03V68.28z M399.8,60.77h5.01v3.86
	l-2.47,2.47l-2.54-2.54V60.77z M412.32,83.3h-20.03V70.78h2.5V58.27h2.5v2.5v4.82l5.04,5.04l4.97-4.97v-4.9v-2.5h2.5v12.52h2.5V83.3
	z"/>
<polygon class="st0" points="382.8,255.42 382.8,264.59 394.64,269.72 397.55,272.29 401.01,271.51 404.14,269.28 411.63,265.81 
	414.53,264.14 414.53,255.2 "/>
<g>
	<path class="st1" d="M415.5,264.66v-9.54c0-0.59-0.48-1.06-1.06-1.06H382.9c-0.59,0-1.06,0.48-1.06,1.06v9.54
		c0,0.41,0.24,0.79,0.6,0.96l11.49,5.49l0.01,0.01c1.28,1.24,2.95,1.92,4.72,1.92c1.77,0,3.44-0.68,4.72-1.92l0.01-0.01l0.02-0.01
		l11.47-5.48C415.26,265.44,415.5,265.07,415.5,264.66z M383.96,263.99v-3.83h7.91v6.09c0,0.46,0.05,0.93,0.14,1.38l0.05,0.23
		L383.96,263.99z M403.33,266.25c0,2.57-2.09,4.66-4.66,4.66c-2.57,0-4.66-2.09-4.66-4.66v-6.09h9.32V266.25L403.33,266.25z
		 M413.37,263.99l-8.1,3.87l0.05-0.23c0.09-0.45,0.14-0.92,0.14-1.38v-6.09h7.91L413.37,263.99L413.37,263.99z M413.37,258.03h-29.4
		v-1.85h29.4V258.03L413.37,258.03z"/>
</g>
<polygon class="st0" points="16.99,24.71 16.99,58.55 60.73,77.53 71.46,87.03 84.25,84.14 95.81,75.88 123.46,63.09 134.19,56.9 
	134.19,23.89 "/>
<g>
	<path class="st1" d="M137.75,58.83V23.6c0-2.17-1.76-3.93-3.93-3.93H17.35c-2.17,0-3.93,1.76-3.93,3.93v35.23
		c0,1.51,0.88,2.9,2.23,3.55L58.1,82.64l0.05,0.05c4.72,4.57,10.91,7.09,17.43,7.09c6.53,0,12.72-2.52,17.43-7.09l0.05-0.05
		l0.06-0.03l42.38-20.23C136.87,61.73,137.75,60.34,137.75,58.83z M21.28,56.35V42.21h29.23v22.5c0,1.71,0.17,3.42,0.52,5.08
		l0.17,0.85L21.28,56.35z M92.8,64.71c0,9.49-7.72,17.21-17.21,17.21c-9.49,0-17.21-7.72-17.21-17.21v-22.5H92.8V64.71L92.8,64.71z
		 M129.89,56.35L99.97,70.64l0.17-0.85c0.34-1.67,0.52-3.38,0.52-5.08v-22.5h29.23L129.89,56.35L129.89,56.35z M129.89,34.35H21.28
		v-6.82h108.61L129.89,34.35L129.89,34.35z"/>
</g>
</svg>
