<?xml version="1.0" encoding="utf-8"?>
<!-- Generator: Adobe Illustrator 23.0.6, SVG Export Plug-In . SVG Version: 6.00 Build 0)  -->
<svg version="1.1" id="Capa_1" xmlns="http://www.w3.org/2000/svg" xmlns:xlink="http://www.w3.org/1999/xlink" x="0px" y="0px"
	 viewBox="0 0 150.41 102.81" style="enable-background:new 0 0 150.41 102.81;" xml:space="preserve">
<style type="text/css">
	.st0{fill:#BEDBF2;}
	.st1{fill:#0E80B6;}
</style>
<polygon class="st0" points="411.06,57.02 406.06,57.02 406.06,59.52 406.06,65.15 402.34,68.87 398.55,65.08 398.55,59.52 
	398.55,57.02 393.54,57.02 393.54,69.53 391.04,69.53 391.04,84.55 413.57,84.55 413.57,69.53 411.06,69.53 "/>
<path class="st1" d="M414.82,68.28h-2.5V55.76h-7.51v2.5h-5.01v-2.5h-7.51v12.52h-2.5V85.8h25.03V68.28z M399.8,60.77h5.01v3.86
	l-2.47,2.47l-2.54-2.54V60.77z M412.32,83.3h-20.03V70.78h2.5V58.27h2.5v2.5v4.82l5.04,5.04l4.97-4.97v-4.9v-2.5h2.5v12.52h2.5V83.3
	z"/>
<polygon class="st0" points="382.8,255.42 382.8,264.59 394.64,269.72 397.55,272.29 401.01,271.51 404.14,269.28 411.63,265.81 
	414.53,264.14 414.53,255.2 "/>
<g>
	<path class="st1" d="M415.5,264.66v-9.54c0-0.59-0.48-1.06-1.06-1.06H382.9c-0.59,0-1.06,0.48-1.06,1.06v9.54
		c0,0.41,0.24,0.79,0.6,0.96l11.49,5.49l0.01,0.01c1.28,1.24,2.95,1.92,4.72,1.92c1.77,0,3.44-0.68,4.72-1.92l0.01-0.01l0.02-0.01
		l11.47-5.48C415.26,265.44,415.5,265.07,415.5,264.66z M383.96,263.99v-3.83h7.91v6.09c0,0.46,0.05,0.93,0.14,1.38l0.05,0.23
		L383.96,263.99z M403.33,266.25c0,2.57-2.09,4.66-4.66,4.66c-2.57,0-4.66-2.09-4.66-4.66v-6.09h9.32V266.25L403.33,266.25z
		 M413.37,263.99l-8.1,3.87l0.05-0.23c0.09-0.45,0.14-0.92,0.14-1.38v-6.09h7.91L413.37,263.99L413.37,263.99z M413.37,258.03h-29.4
		v-1.85h29.4V258.03L413.37,258.03z"/>
</g>
<polygon class="st0" points="105.1,91.74 105.1,18.76 90.51,18.76 90.51,26.06 72.26,44.3 54.01,26.06 54.01,18.76 39.42,18.76 
	39.42,91.74 72.26,91.74 "/>
<path class="st1" d="M75.91,95.39h32.84V15.11h-14.6v-7.3H50.36v7.3h-14.6v80.28h32.84H75.91z M94.16,22.41h7.3v65.69H75.91V77.15
	h7.3v-7.3h-7.3v-7.3h7.3v-7.3h-7.3v-9.44l18.25-18.25V22.41z M57.66,22.41v-7.3h29.19v7.3v2.14L72.57,38.83h-0.63L57.66,24.54V22.41
	z M43.07,22.41h7.3v5.16l18.25,18.25v9.44v7.3v7.3v7.3v10.95H43.07V22.41z"/>
<path class="st1" d="M63.3,49.99c-2.11,0-4.02-0.55-5.73-1.64c-8.06-5.17-7.23-20.49-7.11-22.22l5.79,0.4
	c-0.24,3.5,0.07,14.12,4.46,16.93c2,1.28,5.02,0.83,8.97-1.32l2.78,5.1C69.1,49.07,66.03,49.99,63.3,49.99z"/>
<path class="st1" d="M81.32,49.99c2.11,0,4.02-0.55,5.73-1.64c8.06-5.17,7.23-20.49,7.11-22.22l-5.79,0.4
	c0.24,3.5-0.07,14.12-4.46,16.93c-2,1.28-5.02,0.83-8.97-1.32l-2.78,5.1C75.53,49.07,78.59,49.99,81.32,49.99z"/>
</svg>
