<?xml version="1.0" encoding="utf-8"?>
<!-- Generator: Adobe Illustrator 23.0.6, SVG Export Plug-In . SVG Version: 6.00 Build 0)  -->
<svg version="1.1" id="Capa_1" xmlns="http://www.w3.org/2000/svg" xmlns:xlink="http://www.w3.org/1999/xlink" x="0px" y="0px"
	 viewBox="0 0 150.41 102.81" style="enable-background:new 0 0 150.41 102.81;" xml:space="preserve">
<style type="text/css">
	.st0{fill:#BEDBF2;}
	.st1{fill:#0E80B6;}
</style>
<polygon class="st0" points="411.06,57.02 406.06,57.02 406.06,59.52 406.06,65.15 402.34,68.87 398.55,65.08 398.55,59.52 
	398.55,57.02 393.54,57.02 393.54,69.53 391.04,69.53 391.04,84.55 413.57,84.55 413.57,69.53 411.06,69.53 "/>
<path class="st1" d="M414.82,68.28h-2.5V55.76h-7.51v2.5h-5.01v-2.5h-7.51v12.52h-2.5V85.8h25.03V68.28z M399.8,60.77h5.01v3.86
	l-2.47,2.47l-2.54-2.54V60.77z M412.32,83.3h-20.03V70.78h2.5V58.27h2.5v2.5v4.82l5.04,5.04l4.97-4.97v-4.9v-2.5h2.5v12.52h2.5V83.3
	z"/>
<polygon class="st0" points="382.8,255.42 382.8,264.59 394.64,269.72 397.55,272.29 401.01,271.51 404.14,269.28 411.63,265.81 
	414.53,264.14 414.53,255.2 "/>
<g>
	<path class="st1" d="M415.5,264.66v-9.54c0-0.59-0.48-1.06-1.06-1.06H382.9c-0.59,0-1.06,0.48-1.06,1.06v9.54
		c0,0.41,0.24,0.79,0.6,0.96l11.49,5.49l0.01,0.01c1.28,1.24,2.95,1.92,4.72,1.92c1.77,0,3.44-0.68,4.72-1.92l0.01-0.01l0.02-0.01
		l11.47-5.48C415.26,265.44,415.5,265.07,415.5,264.66z M383.96,263.99v-3.83h7.91v6.09c0,0.46,0.05,0.93,0.14,1.38l0.05,0.23
		L383.96,263.99z M403.33,266.25c0,2.57-2.09,4.66-4.66,4.66c-2.57,0-4.66-2.09-4.66-4.66v-6.09h9.32V266.25L403.33,266.25z
		 M413.37,263.99l-8.1,3.87l0.05-0.23c0.09-0.45,0.14-0.92,0.14-1.38v-6.09h7.91L413.37,263.99L413.37,263.99z M413.37,258.03h-29.4
		v-1.85h29.4V258.03L413.37,258.03z"/>
</g>
<path class="st0" d="M101.11,54.63L84.9,44.5V11.98H60.89v9.12h-9.39v39.35c0,3.62,1.89,7.04,5.12,9.27l0.87,0.6l0.01,0.02
	l0.01-0.01l5.55,3.84l17.87,12.32c5.76,3.95,14.12,2.95,18.37-2.24c1.64-1.98,2.41-4.25,2.41-6.52c0-2.13-0.71-4.23-2.05-6.04
	c1.58-0.7,3-1.72,4.11-3.07c1.47-1.77,2.16-3.81,2.16-5.84C105.92,59.66,104.24,56.59,101.11,54.63z"/>
<path class="st1" d="M102.41,52.88l-15.21-9.5V9.86H58.59v8.97h-9.57v41.62c0,4.36,2.22,8.41,6.1,11.09l24.31,16.78
	c2.74,1.88,6,2.87,9.42,2.87c0.73,0,1.48-0.05,2.22-0.14c4.14-0.52,7.76-2.44,10.19-5.41c1.91-2.3,2.92-5.03,2.92-7.89
	c0-1.83-0.45-3.67-1.3-5.38c1.04-0.71,1.94-1.53,2.7-2.45c1.72-2.07,2.63-4.54,2.63-7.13C108.22,58.86,106.04,55.16,102.41,52.88z
	 M68.46,62.03L53.97,51.82V35.16h21.82v23.4l16.95,10.59L80.47,83.34L61.09,69.96L68.46,62.03z M53.97,30.62v-7.25h21.82v7.25H53.97
	z M96.68,71.92c1.62,1.62,2.54,3.7,2.54,5.81c0,1.86-0.66,3.64-1.91,5.15l0,0c-1.64,2-4.09,3.3-6.92,3.65
	c-1.97,0.25-3.95,0.01-5.75-0.7L96.68,71.92z M95.02,65.08l6.4-7.4c1.41,1.43,2.2,3.25,2.2,5.1c0,1.65-0.59,3.23-1.7,4.57l0,0.01
	c-0.45,0.55-0.99,1.05-1.61,1.49c-0.79-0.79-1.65-1.48-2.57-2.06L95.02,65.08z M63.19,18.83v-4.74H82.6v6.35h-1.86v-1.61H63.19z
	 M97.77,55.1l-6.57,7.59l-10.45-6.53V24.67h1.86v20.95L97.77,55.1z M61.3,62.72l-4.13,4.44c-2.04-1.78-3.21-4.2-3.21-6.72v-2.89
	L61.3,62.72z"/>
</svg>
