<?xml version="1.0" encoding="utf-8"?>
<!-- Generator: Adobe Illustrator 23.0.6, SVG Export Plug-In . SVG Version: 6.00 Build 0)  -->
<svg version="1.1" id="Capa_1" xmlns="http://www.w3.org/2000/svg" xmlns:xlink="http://www.w3.org/1999/xlink" x="0px" y="0px"
	 viewBox="0 0 150.41 102.81" style="enable-background:new 0 0 150.41 102.81;" xml:space="preserve">
<style type="text/css">
	.st0{fill:#BEDBF2;}
	.st1{fill:#0E80B6;}
</style>
<polygon class="st0" points="411.06,57.02 406.06,57.02 406.06,59.52 406.06,65.15 402.34,68.87 398.55,65.08 398.55,59.52 
	398.55,57.02 393.54,57.02 393.54,69.53 391.04,69.53 391.04,84.55 413.57,84.55 413.57,69.53 411.06,69.53 "/>
<path class="st1" d="M414.82,68.28h-2.5V55.76h-7.51v2.5h-5.01v-2.5h-7.51v12.52h-2.5V85.8h25.03V68.28z M399.8,60.77h5.01v3.86
	l-2.47,2.47l-2.54-2.54V60.77z M412.32,83.3h-20.03V70.78h2.5V58.27h2.5v2.5v4.82l5.04,5.04l4.97-4.97v-4.9v-2.5h2.5v12.52h2.5V83.3
	z"/>
<polygon class="st0" points="382.8,255.42 382.8,264.59 394.64,269.72 397.55,272.29 401.01,271.51 404.14,269.28 411.63,265.81 
	414.53,264.14 414.53,255.2 "/>
<g>
	<path class="st1" d="M415.5,264.66v-9.54c0-0.59-0.48-1.06-1.06-1.06H382.9c-0.59,0-1.06,0.48-1.06,1.06v9.54
		c0,0.41,0.24,0.79,0.6,0.96l11.49,5.49l0.01,0.01c1.28,1.24,2.95,1.92,4.72,1.92c1.77,0,3.44-0.68,4.72-1.92l0.01-0.01l0.02-0.01
		l11.47-5.48C415.26,265.44,415.5,265.07,415.5,264.66z M383.96,263.99v-3.83h7.91v6.09c0,0.46,0.05,0.93,0.14,1.38l0.05,0.23
		L383.96,263.99z M403.33,266.25c0,2.57-2.09,4.66-4.66,4.66c-2.57,0-4.66-2.09-4.66-4.66v-6.09h9.32V266.25L403.33,266.25z
		 M413.37,263.99l-8.1,3.87l0.05-0.23c0.09-0.45,0.14-0.92,0.14-1.38v-6.09h7.91L413.37,263.99L413.37,263.99z M413.37,258.03h-29.4
		v-1.85h29.4V258.03L413.37,258.03z"/>
</g>
<polygon class="st0" points="112.31,93.41 112.31,14.08 96.45,14.08 96.45,22.01 76.61,41.85 56.78,22.01 56.78,14.08 40.91,14.08 
	40.91,93.41 76.61,93.41 "/>
<path class="st1" d="M80.58,97.38h35.7V10.11h-15.87V2.18h-47.6v7.93H36.95v87.26h35.7H80.58z M100.41,18.05h7.93v71.4H80.58v-11.9
	h7.93v-7.93h-7.93v-7.93h7.93v-7.93h-7.93V43.49l19.83-19.83V18.05z M60.75,18.05v-7.93h31.73v7.93v2.32L76.95,35.9h-0.68
	L60.75,20.37V18.05z M44.88,18.05h7.93v5.61l19.83,19.83v10.26v7.93v7.93v7.93v11.9H44.88V18.05z"/>
<path class="st1" d="M66.87,48.03c-2.29,0-4.37-0.6-6.23-1.79c-8.76-5.62-7.86-22.27-7.73-24.15l6.3,0.44
	c-0.26,3.8,0.08,15.35,4.84,18.4c2.17,1.39,5.46,0.91,9.75-1.44l3.03,5.54C73.17,47.03,69.84,48.03,66.87,48.03z"/>
<path class="st1" d="M86.46,48.03c2.29,0,4.37-0.6,6.23-1.79c8.76-5.62,7.86-22.27,7.73-24.15l-6.3,0.44
	c0.26,3.8-0.08,15.35-4.84,18.4c-2.17,1.39-5.46,0.91-9.75-1.44l-3.03,5.54C80.16,47.03,83.49,48.03,86.46,48.03z"/>
</svg>
